<svg xmlns="http://www.w3.org/2000/svg" viewBox="0 0 64 64"><defs><style>.a{fill:#000842;}.b{fill:#fff;}.c{fill:#f6ae2d;}</style></defs><rect class="a" width="64" height="64"/><path class="b" d="M35.24,29.79c-7.54,0-7.62-.19-8.3.58a2.1,2.1,0,0,0,0,2.76,1.9,1.9,0,0,0,.62.44c.4.17.06.12,7.68.12a2,2,0,0,0,0-3.9Z"/><path class="b" d="M36.86,35.82c-1.14.7-8.89.62-10.28,0,0,0-8.47,6.64-8.5,11.14,0,3.43,2.78,8.33,6.21,8.33H39.15c3.44,0,6.23-4.92,6.2-8.36C45.32,43.12,36.86,35.82,36.86,35.82Zm-.8,16a5.75,5.75,0,0,1-3.28.92,6.5,6.5,0,0,1-4.6-1.41,5.84,5.84,0,0,1-1.82-3.16H24.78l.42-1.58h1a4.17,4.17,0,0,1,0-.46c0-.23,0-.4,0-.5H25L25.41,44h.95q1.14-4.46,6.22-4.46a7.25,7.25,0,0,1,3.36.89l-.78,3.15a3.61,3.61,0,0,0-2.47-1.09A2.24,2.24,0,0,0,30.41,44h3.13l-.37,1.58H30.1c0,.12,0,.28,0,.5v.46h3.24L33,48.14H30.31a2.14,2.14,0,0,0,2.23,1.62,5.8,5.8,0,0,0,3.52-1.21Z"/><path class="c" d="M33.4,21.94V17.48h2.5c4.15,0,7.51-3.09,7.51-6.89,0-.37.64-.26-4.18-.26-2.71,0-4.5,2.64-5.83,4.8V8.54c0-.49-.76-.71-1.3-.71s-1.35.22-1.35.71V11.8c-1.33-2.16-3.83-4.15-6.54-4.15-4.81,0-4.18-.11-4.18.26,0,3.8,3.36,6.89,7.51,6.89h3.21v7.14"/><path class="b" d="M36.69,24.11c-.22-.11-4-.16-4-.16H27.45a1.57,1.57,0,0,0-1.58,1.56v0c0,.49.13.63,1,2.43,1.79.09,8-.07,9.62,0l.87-1.73A1.58,1.58,0,0,0,36.69,24.11Z"/></svg>